<mxfile host="app.diagrams.net" modified="2020-11-09T04:58:55.099Z" agent="5.0 (Macintosh; Intel Mac OS X 10_14_6) AppleWebKit/537.36 (KHTML, like Gecko) Chrome/86.0.4240.111 Safari/537.36" etag="F75ilLHMW7MOgYN-UlsD" version="13.9.2" type="github" pages="2">
  <diagram id="mjQjzFZ3aKfU1gKucydB" name="Page-1">
    <mxGraphModel dx="738" dy="471" grid="1" gridSize="10" guides="1" tooltips="1" connect="1" arrows="1" fold="1" page="1" pageScale="1" pageWidth="2339" pageHeight="3300" math="0" shadow="0">
      <root>
        <mxCell id="0" />
        <mxCell id="1" parent="0" />
        <mxCell id="Q-gZ82rmr-A4SOGIBJ2S-11" value="时间" style="rounded=1;whiteSpace=wrap;html=1;" vertex="1" parent="1">
          <mxGeometry x="760" y="200" width="120" height="60" as="geometry" />
        </mxCell>
        <mxCell id="Q-gZ82rmr-A4SOGIBJ2S-12" value="开始时间" style="rounded=1;whiteSpace=wrap;html=1;" vertex="1" parent="1">
          <mxGeometry x="950" y="200" width="120" height="60" as="geometry" />
        </mxCell>
        <mxCell id="Q-gZ82rmr-A4SOGIBJ2S-13" value="截止时间" style="rounded=1;whiteSpace=wrap;html=1;" vertex="1" parent="1">
          <mxGeometry x="1140" y="200" width="120" height="60" as="geometry" />
        </mxCell>
        <mxCell id="Q-gZ82rmr-A4SOGIBJ2S-14" value="提醒（reminds)" style="rounded=1;whiteSpace=wrap;html=1;" vertex="1" parent="1">
          <mxGeometry x="750" y="452" width="120" height="60" as="geometry" />
        </mxCell>
        <mxCell id="Q-gZ82rmr-A4SOGIBJ2S-66" value="提醒人员(people)" style="swimlane;fontStyle=1;align=center;verticalAlign=top;childLayout=stackLayout;horizontal=1;startSize=26;horizontalStack=0;resizeParent=1;resizeParentMax=0;resizeLast=0;collapsible=1;marginBottom=0;" vertex="1" parent="1">
          <mxGeometry x="910" y="460" width="160" height="86" as="geometry" />
        </mxCell>
        <mxCell id="Q-gZ82rmr-A4SOGIBJ2S-67" value="仅执行者 (1)" style="text;strokeColor=none;fillColor=none;align=left;verticalAlign=top;spacingLeft=4;spacingRight=4;overflow=hidden;rotatable=0;points=[[0,0.5],[1,0.5]];portConstraint=eastwest;" vertex="1" parent="Q-gZ82rmr-A4SOGIBJ2S-66">
          <mxGeometry y="26" width="160" height="26" as="geometry" />
        </mxCell>
        <mxCell id="Q-gZ82rmr-A4SOGIBJ2S-68" value="" style="line;strokeWidth=1;fillColor=none;align=left;verticalAlign=middle;spacingTop=-1;spacingLeft=3;spacingRight=3;rotatable=0;labelPosition=right;points=[];portConstraint=eastwest;" vertex="1" parent="Q-gZ82rmr-A4SOGIBJ2S-66">
          <mxGeometry y="52" width="160" height="8" as="geometry" />
        </mxCell>
        <mxCell id="Q-gZ82rmr-A4SOGIBJ2S-69" value="全员    (2)" style="text;strokeColor=none;fillColor=none;align=left;verticalAlign=top;spacingLeft=4;spacingRight=4;overflow=hidden;rotatable=0;points=[[0,0.5],[1,0.5]];portConstraint=eastwest;" vertex="1" parent="Q-gZ82rmr-A4SOGIBJ2S-66">
          <mxGeometry y="60" width="160" height="26" as="geometry" />
        </mxCell>
        <mxCell id="Q-gZ82rmr-A4SOGIBJ2S-168" value="提醒时间(timeOption)" style="swimlane;fontStyle=1;align=center;verticalAlign=top;childLayout=stackLayout;horizontal=1;startSize=26;horizontalStack=0;resizeParent=1;resizeParentMax=0;resizeLast=0;collapsible=1;marginBottom=0;" vertex="1" parent="1">
          <mxGeometry x="1110" y="460" width="160" height="266" as="geometry" />
        </mxCell>
        <mxCell id="Q-gZ82rmr-A4SOGIBJ2S-169" value="不提醒 （0）" style="text;strokeColor=none;fillColor=none;align=left;verticalAlign=top;spacingLeft=4;spacingRight=4;overflow=hidden;rotatable=0;points=[[0,0.5],[1,0.5]];portConstraint=eastwest;" vertex="1" parent="Q-gZ82rmr-A4SOGIBJ2S-168">
          <mxGeometry y="26" width="160" height="26" as="geometry" />
        </mxCell>
        <mxCell id="Q-gZ82rmr-A4SOGIBJ2S-170" value="" style="line;strokeWidth=1;fillColor=none;align=left;verticalAlign=middle;spacingTop=-1;spacingLeft=3;spacingRight=3;rotatable=0;labelPosition=right;points=[];portConstraint=eastwest;" vertex="1" parent="Q-gZ82rmr-A4SOGIBJ2S-168">
          <mxGeometry y="52" width="160" height="8" as="geometry" />
        </mxCell>
        <mxCell id="Q-gZ82rmr-A4SOGIBJ2S-171" value="截止时 （1)" style="text;strokeColor=none;fillColor=none;align=left;verticalAlign=top;spacingLeft=4;spacingRight=4;overflow=hidden;rotatable=0;points=[[0,0.5],[1,0.5]];portConstraint=eastwest;" vertex="1" parent="Q-gZ82rmr-A4SOGIBJ2S-168">
          <mxGeometry y="60" width="160" height="26" as="geometry" />
        </mxCell>
        <mxCell id="Q-gZ82rmr-A4SOGIBJ2S-175" value="" style="line;strokeWidth=1;html=1;" vertex="1" parent="Q-gZ82rmr-A4SOGIBJ2S-168">
          <mxGeometry y="86" width="160" height="10" as="geometry" />
        </mxCell>
        <mxCell id="Q-gZ82rmr-A4SOGIBJ2S-173" value="截止前15分钟 （2）" style="text;strokeColor=none;fillColor=none;align=left;verticalAlign=top;spacingLeft=4;spacingRight=4;overflow=hidden;rotatable=0;points=[[0,0.5],[1,0.5]];portConstraint=eastwest;" vertex="1" parent="Q-gZ82rmr-A4SOGIBJ2S-168">
          <mxGeometry y="96" width="160" height="26" as="geometry" />
        </mxCell>
        <mxCell id="Q-gZ82rmr-A4SOGIBJ2S-176" value="" style="line;strokeWidth=1;html=1;" vertex="1" parent="Q-gZ82rmr-A4SOGIBJ2S-168">
          <mxGeometry y="122" width="160" height="10" as="geometry" />
        </mxCell>
        <mxCell id="Q-gZ82rmr-A4SOGIBJ2S-174" value="截止前1h (3)" style="text;strokeColor=none;fillColor=none;align=left;verticalAlign=top;spacingLeft=4;spacingRight=4;overflow=hidden;rotatable=0;points=[[0,0.5],[1,0.5]];portConstraint=eastwest;" vertex="1" parent="Q-gZ82rmr-A4SOGIBJ2S-168">
          <mxGeometry y="132" width="160" height="26" as="geometry" />
        </mxCell>
        <mxCell id="Q-gZ82rmr-A4SOGIBJ2S-183" value="" style="line;strokeWidth=1;html=1;" vertex="1" parent="Q-gZ82rmr-A4SOGIBJ2S-168">
          <mxGeometry y="158" width="160" height="10" as="geometry" />
        </mxCell>
        <mxCell id="Q-gZ82rmr-A4SOGIBJ2S-178" value="截止前3h (4)" style="text;strokeColor=none;fillColor=none;align=left;verticalAlign=top;spacingLeft=4;spacingRight=4;overflow=hidden;rotatable=0;points=[[0,0.5],[1,0.5]];portConstraint=eastwest;" vertex="1" parent="Q-gZ82rmr-A4SOGIBJ2S-168">
          <mxGeometry y="168" width="160" height="26" as="geometry" />
        </mxCell>
        <mxCell id="Q-gZ82rmr-A4SOGIBJ2S-184" value="" style="line;strokeWidth=1;html=1;" vertex="1" parent="Q-gZ82rmr-A4SOGIBJ2S-168">
          <mxGeometry y="194" width="160" height="10" as="geometry" />
        </mxCell>
        <mxCell id="Q-gZ82rmr-A4SOGIBJ2S-179" value="截止前12h (5)" style="text;strokeColor=none;fillColor=none;align=left;verticalAlign=top;spacingLeft=4;spacingRight=4;overflow=hidden;rotatable=0;points=[[0,0.5],[1,0.5]];portConstraint=eastwest;" vertex="1" parent="Q-gZ82rmr-A4SOGIBJ2S-168">
          <mxGeometry y="204" width="160" height="26" as="geometry" />
        </mxCell>
        <mxCell id="Q-gZ82rmr-A4SOGIBJ2S-185" value="" style="line;strokeWidth=1;html=1;" vertex="1" parent="Q-gZ82rmr-A4SOGIBJ2S-168">
          <mxGeometry y="230" width="160" height="10" as="geometry" />
        </mxCell>
        <mxCell id="Q-gZ82rmr-A4SOGIBJ2S-180" value="自定义提醒 (6)" style="text;strokeColor=none;fillColor=none;align=left;verticalAlign=top;spacingLeft=4;spacingRight=4;overflow=hidden;rotatable=0;points=[[0,0.5],[1,0.5]];portConstraint=eastwest;" vertex="1" parent="Q-gZ82rmr-A4SOGIBJ2S-168">
          <mxGeometry y="240" width="160" height="26" as="geometry" />
        </mxCell>
        <mxCell id="Q-gZ82rmr-A4SOGIBJ2S-189" value="未设置截止时间" style="rounded=1;whiteSpace=wrap;html=1;" vertex="1" parent="1">
          <mxGeometry x="1220" y="300" width="120" height="60" as="geometry" />
        </mxCell>
        <mxCell id="Q-gZ82rmr-A4SOGIBJ2S-190" value="设置截止了时间" style="rounded=1;whiteSpace=wrap;html=1;" vertex="1" parent="1">
          <mxGeometry x="1050" y="300" width="120" height="60" as="geometry" />
        </mxCell>
        <mxCell id="Q-gZ82rmr-A4SOGIBJ2S-191" value="提醒时间(timeOption)" style="swimlane;fontStyle=1;align=center;verticalAlign=top;childLayout=stackLayout;horizontal=1;startSize=26;horizontalStack=0;resizeParent=1;resizeParentMax=0;resizeLast=0;collapsible=1;marginBottom=0;" vertex="1" parent="1">
          <mxGeometry x="1300" y="460" width="160" height="52" as="geometry" />
        </mxCell>
        <mxCell id="Q-gZ82rmr-A4SOGIBJ2S-192" value="指定时间" style="text;strokeColor=none;fillColor=none;align=left;verticalAlign=top;spacingLeft=4;spacingRight=4;overflow=hidden;rotatable=0;points=[[0,0.5],[1,0.5]];portConstraint=eastwest;" vertex="1" parent="Q-gZ82rmr-A4SOGIBJ2S-191">
          <mxGeometry y="26" width="160" height="26" as="geometry" />
        </mxCell>
        <mxCell id="Q-gZ82rmr-A4SOGIBJ2S-197" value="" style="endArrow=classic;html=1;exitX=0.833;exitY=1;exitDx=0;exitDy=0;exitPerimeter=0;entryX=0.125;entryY=0;entryDx=0;entryDy=0;entryPerimeter=0;" edge="1" parent="1" source="Q-gZ82rmr-A4SOGIBJ2S-190" target="Q-gZ82rmr-A4SOGIBJ2S-168">
          <mxGeometry width="50" height="50" relative="1" as="geometry">
            <mxPoint x="1140" y="350" as="sourcePoint" />
            <mxPoint x="1110" y="410" as="targetPoint" />
          </mxGeometry>
        </mxCell>
        <mxCell id="Q-gZ82rmr-A4SOGIBJ2S-198" value="" style="endArrow=classic;html=1;exitX=0.192;exitY=1.067;exitDx=0;exitDy=0;exitPerimeter=0;" edge="1" parent="1" source="Q-gZ82rmr-A4SOGIBJ2S-13">
          <mxGeometry width="50" height="50" relative="1" as="geometry">
            <mxPoint x="1060" y="460" as="sourcePoint" />
            <mxPoint x="1157" y="295" as="targetPoint" />
          </mxGeometry>
        </mxCell>
        <mxCell id="Q-gZ82rmr-A4SOGIBJ2S-199" value="" style="endArrow=classic;html=1;exitX=0.75;exitY=1;exitDx=0;exitDy=0;entryX=0.133;entryY=0;entryDx=0;entryDy=0;entryPerimeter=0;" edge="1" parent="1" source="Q-gZ82rmr-A4SOGIBJ2S-13" target="Q-gZ82rmr-A4SOGIBJ2S-189">
          <mxGeometry width="50" height="50" relative="1" as="geometry">
            <mxPoint x="1060" y="460" as="sourcePoint" />
            <mxPoint x="1110" y="410" as="targetPoint" />
          </mxGeometry>
        </mxCell>
        <mxCell id="Q-gZ82rmr-A4SOGIBJ2S-200" value="" style="endArrow=classic;html=1;exitX=0.383;exitY=1.033;exitDx=0;exitDy=0;exitPerimeter=0;" edge="1" parent="1" source="Q-gZ82rmr-A4SOGIBJ2S-189">
          <mxGeometry width="50" height="50" relative="1" as="geometry">
            <mxPoint x="1320" y="350" as="sourcePoint" />
            <mxPoint x="1310" y="450" as="targetPoint" />
          </mxGeometry>
        </mxCell>
        <mxCell id="Q-gZ82rmr-A4SOGIBJ2S-202" value="未设置提醒" style="whiteSpace=wrap;html=1;rounded=1;" vertex="1" parent="1">
          <mxGeometry x="850" y="280" width="120" height="60" as="geometry" />
        </mxCell>
        <mxCell id="Q-gZ82rmr-A4SOGIBJ2S-205" value="&amp;nbsp; &amp;nbsp; &amp;nbsp; &amp;nbsp; Select组件&lt;br&gt;&amp;nbsp; &amp;nbsp; &amp;nbsp; &amp;nbsp; &amp;nbsp;Option组件" style="text;html=1;align=center;verticalAlign=middle;resizable=0;points=[];autosize=1;" vertex="1" parent="1">
          <mxGeometry x="1110" y="395" width="100" height="30" as="geometry" />
        </mxCell>
        <mxCell id="Q-gZ82rmr-A4SOGIBJ2S-206" value="&amp;nbsp; &amp;nbsp; &amp;nbsp; &amp;nbsp; &amp;nbsp; &amp;nbsp; &amp;nbsp; &amp;nbsp; &amp;nbsp;DatePicker组件" style="text;html=1;align=center;verticalAlign=middle;resizable=0;points=[];autosize=1;" vertex="1" parent="1">
          <mxGeometry x="1250" y="400" width="150" height="20" as="geometry" />
        </mxCell>
        <mxCell id="Q-gZ82rmr-A4SOGIBJ2S-207" value="设置提醒" style="rounded=1;whiteSpace=wrap;html=1;" vertex="1" parent="1">
          <mxGeometry x="850" y="360" width="120" height="60" as="geometry" />
        </mxCell>
        <mxCell id="Q-gZ82rmr-A4SOGIBJ2S-209" value="未设置提醒" style="whiteSpace=wrap;html=1;rounded=1;" vertex="1" parent="1">
          <mxGeometry x="1410" y="280" width="120" height="60" as="geometry" />
        </mxCell>
        <mxCell id="Q-gZ82rmr-A4SOGIBJ2S-210" value="设置提醒" style="rounded=1;whiteSpace=wrap;html=1;" vertex="1" parent="1">
          <mxGeometry x="1410" y="360" width="120" height="60" as="geometry" />
        </mxCell>
        <mxCell id="Q-gZ82rmr-A4SOGIBJ2S-211" value="" style="endArrow=classic;html=1;" edge="1" parent="1">
          <mxGeometry width="50" height="50" relative="1" as="geometry">
            <mxPoint x="1040" y="330" as="sourcePoint" />
            <mxPoint x="980" y="300" as="targetPoint" />
          </mxGeometry>
        </mxCell>
        <mxCell id="Q-gZ82rmr-A4SOGIBJ2S-212" value="" style="endArrow=classic;html=1;" edge="1" parent="1">
          <mxGeometry width="50" height="50" relative="1" as="geometry">
            <mxPoint x="1040" y="360" as="sourcePoint" />
            <mxPoint x="980" y="390" as="targetPoint" />
          </mxGeometry>
        </mxCell>
        <mxCell id="Q-gZ82rmr-A4SOGIBJ2S-213" value="" style="endArrow=classic;html=1;" edge="1" parent="1">
          <mxGeometry width="50" height="50" relative="1" as="geometry">
            <mxPoint x="1350" y="320" as="sourcePoint" />
            <mxPoint x="1400" y="300" as="targetPoint" />
          </mxGeometry>
        </mxCell>
        <mxCell id="Q-gZ82rmr-A4SOGIBJ2S-215" value="" style="endArrow=classic;html=1;" edge="1" parent="1">
          <mxGeometry width="50" height="50" relative="1" as="geometry">
            <mxPoint x="1350" y="350" as="sourcePoint" />
            <mxPoint x="1400" y="380" as="targetPoint" />
          </mxGeometry>
        </mxCell>
        <mxCell id="Q-gZ82rmr-A4SOGIBJ2S-216" value="通知" style="ellipse;whiteSpace=wrap;html=1;" vertex="1" parent="1">
          <mxGeometry x="660" y="310" width="120" height="80" as="geometry" />
        </mxCell>
        <mxCell id="hosxBrZWb-tp3ugHy3wR-1" value="" style="endArrow=classic;html=1;entryX=1;entryY=0.375;entryDx=0;entryDy=0;entryPerimeter=0;" edge="1" parent="1" target="Q-gZ82rmr-A4SOGIBJ2S-216">
          <mxGeometry width="50" height="50" relative="1" as="geometry">
            <mxPoint x="840" y="310" as="sourcePoint" />
            <mxPoint x="660" y="360" as="targetPoint" />
          </mxGeometry>
        </mxCell>
        <mxCell id="hosxBrZWb-tp3ugHy3wR-2" value="" style="endArrow=classic;html=1;exitX=0;exitY=0.75;exitDx=0;exitDy=0;" edge="1" parent="1" source="Q-gZ82rmr-A4SOGIBJ2S-207">
          <mxGeometry width="50" height="50" relative="1" as="geometry">
            <mxPoint x="610" y="410" as="sourcePoint" />
            <mxPoint x="780" y="371" as="targetPoint" />
          </mxGeometry>
        </mxCell>
        <mxCell id="hosxBrZWb-tp3ugHy3wR-3" value="" style="endArrow=classic;html=1;exitX=0;exitY=0.375;exitDx=0;exitDy=0;exitPerimeter=0;" edge="1" parent="1" source="Q-gZ82rmr-A4SOGIBJ2S-216">
          <mxGeometry width="50" height="50" relative="1" as="geometry">
            <mxPoint x="610" y="410" as="sourcePoint" />
            <mxPoint x="560" y="310" as="targetPoint" />
          </mxGeometry>
        </mxCell>
        <mxCell id="hosxBrZWb-tp3ugHy3wR-4" value="" style="endArrow=classic;html=1;" edge="1" parent="1" source="Q-gZ82rmr-A4SOGIBJ2S-216">
          <mxGeometry width="50" height="50" relative="1" as="geometry">
            <mxPoint x="610" y="410" as="sourcePoint" />
            <mxPoint x="560" y="390" as="targetPoint" />
          </mxGeometry>
        </mxCell>
        <mxCell id="hosxBrZWb-tp3ugHy3wR-5" value="1系统默认选中，截止前1小时，执行者提醒&lt;br&gt;2项目任务状态在截止时为未完成，自动触发截止时提醒" style="whiteSpace=wrap;html=1;" vertex="1" parent="1">
          <mxGeometry x="360" y="280" width="190" height="60" as="geometry" />
        </mxCell>
        <mxCell id="hosxBrZWb-tp3ugHy3wR-6" value="1用户设置了提醒，非截止时，会在截止时提醒，并且会在用户选择的时间提醒&lt;br&gt;2用户设置截止时提醒，则截止时提醒" style="rounded=1;whiteSpace=wrap;html=1;" vertex="1" parent="1">
          <mxGeometry x="355" y="380" width="200" height="60" as="geometry" />
        </mxCell>
        <mxCell id="hosxBrZWb-tp3ugHy3wR-11" value="不提醒" style="whiteSpace=wrap;html=1;rounded=1;" vertex="1" parent="1">
          <mxGeometry x="1720" y="270" width="120" height="60" as="geometry" />
        </mxCell>
        <mxCell id="hosxBrZWb-tp3ugHy3wR-13" value="1选择了指定时间提醒，则提醒，没有选择则不提醒（0）" style="rounded=1;whiteSpace=wrap;html=1;" vertex="1" parent="1">
          <mxGeometry x="1720" y="400" width="120" height="60" as="geometry" />
        </mxCell>
        <mxCell id="hosxBrZWb-tp3ugHy3wR-16" value="通知" style="ellipse;whiteSpace=wrap;html=1;" vertex="1" parent="1">
          <mxGeometry x="1570" y="310" width="120" height="80" as="geometry" />
        </mxCell>
        <mxCell id="hosxBrZWb-tp3ugHy3wR-18" value="" style="endArrow=classic;html=1;exitX=0;exitY=0.375;exitDx=0;exitDy=0;exitPerimeter=0;" edge="1" parent="1" source="hosxBrZWb-tp3ugHy3wR-16">
          <mxGeometry width="50" height="50" relative="1" as="geometry">
            <mxPoint x="1460" y="460" as="sourcePoint" />
            <mxPoint x="1540" y="310" as="targetPoint" />
          </mxGeometry>
        </mxCell>
        <mxCell id="hosxBrZWb-tp3ugHy3wR-19" value="" style="endArrow=classic;html=1;exitX=0.1;exitY=0.838;exitDx=0;exitDy=0;exitPerimeter=0;" edge="1" parent="1" source="hosxBrZWb-tp3ugHy3wR-16">
          <mxGeometry width="50" height="50" relative="1" as="geometry">
            <mxPoint x="1460" y="460" as="sourcePoint" />
            <mxPoint x="1540" y="390" as="targetPoint" />
          </mxGeometry>
        </mxCell>
        <mxCell id="hosxBrZWb-tp3ugHy3wR-20" value="" style="endArrow=classic;html=1;exitX=1.033;exitY=0.413;exitDx=0;exitDy=0;exitPerimeter=0;entryX=-0.042;entryY=0.867;entryDx=0;entryDy=0;entryPerimeter=0;" edge="1" parent="1" source="hosxBrZWb-tp3ugHy3wR-16" target="hosxBrZWb-tp3ugHy3wR-11">
          <mxGeometry width="50" height="50" relative="1" as="geometry">
            <mxPoint x="1460" y="460" as="sourcePoint" />
            <mxPoint x="1750" y="340" as="targetPoint" />
          </mxGeometry>
        </mxCell>
        <mxCell id="hosxBrZWb-tp3ugHy3wR-21" value="" style="endArrow=classic;html=1;exitX=0.917;exitY=0.875;exitDx=0;exitDy=0;exitPerimeter=0;entryX=0;entryY=0;entryDx=0;entryDy=0;" edge="1" parent="1" source="hosxBrZWb-tp3ugHy3wR-16" target="hosxBrZWb-tp3ugHy3wR-13">
          <mxGeometry width="50" height="50" relative="1" as="geometry">
            <mxPoint x="1460" y="460" as="sourcePoint" />
            <mxPoint x="1710" y="420" as="targetPoint" />
          </mxGeometry>
        </mxCell>
      </root>
    </mxGraphModel>
  </diagram>
  <diagram id="OjdW31D7I5CPjap3tIJB" name="Page-2">
    <mxGraphModel dx="776" dy="471" grid="1" gridSize="10" guides="1" tooltips="1" connect="1" arrows="1" fold="1" page="1" pageScale="1" pageWidth="2339" pageHeight="3300" math="0" shadow="0">
      <root>
        <mxCell id="Bi8irvDg_S9jcoTJlWlP-0" />
        <mxCell id="Bi8irvDg_S9jcoTJlWlP-1" parent="Bi8irvDg_S9jcoTJlWlP-0" />
      </root>
    </mxGraphModel>
  </diagram>
</mxfile>
